<svg width="183" height="316" viewBox="0 0 183 316" fill="none" xmlns="http://www.w3.org/2000/svg">
<path d="M101.243 315.546C95.5486 315.577 89.8533 315.656 84.1591 315.608C82.4383 315.594 80.7197 315.631 79.0003 315.634C75.6479 315.639 72.2954 315.708 68.9432 315.687C63.6629 315.654 58.3833 315.734 53.1037 315.743C47.9424 315.752 42.7815 315.797 37.6206 315.803C32.3406 315.809 27.061 315.846 21.7814 315.858C20.2409 315.862 18.6966 315.803 17.1582 315.886C16.2993 315.932 16.0488 315.516 16.0246 314.789C15.9682 313.097 15.9228 311.406 15.8596 309.714C15.6719 304.702 16.0216 299.709 16.3183 294.711C16.5691 290.485 16.9226 286.268 17.309 282.055C17.9446 275.125 18.9525 268.241 20.2011 261.395C20.7058 258.628 21.2554 255.869 21.7929 253.108C21.8854 252.633 21.9291 252.255 21.3068 252.087C15.2111 250.434 11.0262 246.311 7.42333 241.396C3.74428 236.377 1.67506 230.745 0.734367 224.639C0.227419 221.348 -0.0334269 218.042 0.0034356 214.719C0.0822511 207.601 0.762803 200.539 2.03473 193.531C3.76025 184.025 5.77996 174.577 8.34156 165.266C10.6321 156.94 14.3077 149.202 19.424 142.21C23.6112 136.488 28.8245 131.866 34.9015 128.218C41.0056 124.553 47.5708 121.888 54.181 119.318C57.7452 117.933 61.2856 116.485 64.8699 115.154C66.2248 114.651 67.1174 113.65 68.0737 112.7C69.5129 111.27 70.9817 109.883 72.901 109.127C74.7148 108.412 76.5312 108.272 78.2625 109.412C78.5609 109.701 78.5007 110.065 78.4481 110.412C78.1409 112.436 78.0777 114.469 78.183 116.51C78.1563 116.947 78.1909 117.382 78.199 117.818C78.3234 119.662 78.0708 121.492 77.9648 123.325C77.8072 126.048 77.7445 128.775 77.529 131.495C77.3532 133.712 77.213 135.932 77.0498 138.151C76.9776 139.132 77.064 140.109 77.0652 141.087C77.0657 141.53 77.1293 141.978 76.9848 142.411C76.6864 142.889 76.4836 142.504 76.3297 142.302C75.7894 141.594 75.3241 140.84 74.9447 140.026C72.8808 135.599 71.3801 130.969 70.0162 126.294C69.0353 122.931 68.1067 119.553 67.4881 116.099C67.4479 115.875 67.453 115.536 67.1495 115.566C66.8445 115.595 66.932 115.934 66.9256 116.155C66.9124 116.604 67.0333 117.038 67.1264 117.472C68.7466 125.035 70.8203 132.458 73.9122 139.568C74.3507 140.576 74.8819 141.535 75.4991 142.45C75.8514 142.972 76.254 143.172 76.8438 142.897C77.1449 142.941 77.2021 143.183 77.24 143.417C77.7782 146.739 78.8637 149.923 79.677 153.176C81.8043 161.684 84.6057 169.977 87.6468 178.195C90.1122 184.857 93.0049 191.328 96.1879 197.676C97.041 199.377 97.9629 201.032 98.9478 202.656C99.0999 202.907 99.2971 203.15 99.1648 203.479C97.9424 204.068 96.6817 203.852 95.422 203.662C94.6469 203.454 93.8893 203.732 93.1218 203.754C89.6197 203.855 86.1264 203.651 82.629 203.542C80.0809 203.463 77.533 203.349 74.9818 203.326C71.5716 203.295 68.159 203.08 64.7521 203.274C60.9558 203.49 57.1712 203.86 53.5817 205.27C53.1818 205.427 52.7726 205.51 52.3666 205.348C51.4038 204.963 50.4786 204.49 49.4942 204.151C49.0565 204.001 49.0211 203.588 49.053 203.18C49.1966 201.346 49.27 199.507 49.3897 197.672C49.5345 195.452 49.6311 193.227 49.6609 191.008C49.7332 185.64 49.9024 180.266 49.6058 174.901C49.3469 170.222 49.2017 165.536 48.8571 160.863C48.5956 157.316 48.307 153.768 47.8697 150.235C47.8204 149.837 47.8243 149.401 47.3789 149.097C47.0363 149.493 47.1534 149.946 47.1992 150.36C47.6423 154.369 47.9538 158.386 48.2407 162.41C48.7135 169.044 48.9795 175.684 49.0737 182.33C49.1271 186.093 49.0188 189.859 48.908 193.624C48.8252 196.441 48.7086 199.255 48.5522 202.067C48.544 202.216 48.5459 202.364 48.5347 202.512C48.4172 204.046 48.3635 204.099 46.8567 204.411C44.1294 204.976 41.769 206.35 39.4449 207.798C36.5798 209.583 34.0956 211.836 31.6799 214.169C31.4194 214.42 30.9272 214.797 31.2511 215.102C31.6578 215.486 31.9602 214.893 32.2185 214.629C34.7211 212.069 37.4759 209.817 40.5102 207.924C42.2222 206.855 44.0011 205.902 45.9294 205.248C47.201 204.817 48.4703 204.68 49.7838 204.97C50.0748 205.035 50.3652 205.099 50.6322 205.233C51.4326 205.635 51.473 206.114 50.7197 206.585C50.1166 206.963 49.4848 207.294 48.901 207.706C46.6689 209.284 44.8946 211.317 43.194 213.423C42.4666 214.324 41.7697 215.249 41.0727 216.174C40.912 216.387 40.7458 216.598 40.6521 216.853C40.6098 216.968 40.5843 217.097 40.6916 217.178C40.7957 217.257 40.914 217.215 41.0124 217.134C41.2915 216.904 41.4804 216.599 41.6998 216.319C43.3673 214.196 45.0173 212.065 46.9761 210.185C50.016 207.267 53.6914 205.638 57.7384 204.783C62.181 203.845 66.6933 203.809 71.2098 203.949C72.7216 203.996 74.2342 203.97 75.7464 204.004C78.2659 204.059 80.7823 204.242 83.3041 204.209C83.6423 204.204 84.0392 204.137 84.2246 204.565C84.061 204.777 83.9216 204.936 84.1828 205.235C86.7413 208.156 88.1961 211.658 89.3518 215.297C90.6234 219.302 91.3213 223.416 91.6852 227.603C91.9454 230.596 92.0689 233.58 91.8859 236.576C91.8353 237.405 91.6166 238.217 91.6294 239.053C91.469 239.46 91.0788 239.569 90.7347 239.732C86.4358 241.759 82.0197 243.509 77.6004 245.249C72.3252 247.327 67.0512 249.41 61.6252 251.074C56.0769 252.775 50.4238 253.977 44.6527 254.616C42.3528 254.87 40.0524 255.175 37.7362 255.129C32.86 255.032 28.0044 254.741 23.3567 253.044C23.162 252.973 22.967 252.898 22.7553 252.892C22.6658 252.89 22.5814 252.9 22.4975 253.06C22.8585 253.586 23.4789 253.725 24.0406 253.925C26.1228 254.664 28.2986 254.987 30.4722 255.308C34.5504 255.912 38.6613 255.857 42.7343 255.501C50.4203 254.828 57.936 253.206 65.2185 250.633C74.2621 247.437 83.2063 243.982 91.9266 239.974C94.6769 238.71 97.335 237.252 100.101 236.018C100.535 235.825 100.958 235.606 101.397 235.425C102.284 235.06 102.57 235.254 102.463 236.199C102.311 237.526 102.158 238.852 102.097 240.187C102.028 241.698 101.928 243.205 101.916 244.719C101.875 249.824 102.129 254.926 102.116 260.028C102.104 264.589 102.054 269.156 101.848 273.718C101.777 275.284 101.793 276.859 101.764 278.43C101.683 282.935 101.733 287.442 101.604 291.947C101.557 293.606 101.595 295.268 101.58 296.927C101.546 300.782 101.371 304.632 101.28 308.485C101.236 310.319 101.161 312.161 100.974 313.989C100.918 314.557 101.214 315.019 101.243 315.546Z" fill="#DD2646"/>
<path d="M77.9217 116.548C77.7014 114.153 78.0015 111.783 78.2624 109.412C78.7525 107.797 78.8557 106.111 79.1627 104.462C79.2185 104.162 79.0869 103.955 78.7806 103.854C75.023 102.604 71.7805 100.41 68.52 98.2488C67.4194 97.8758 66.621 97.0475 65.757 96.3434C61.6732 93.0151 58.281 89.0781 55.6095 84.5342C55.2904 83.9915 54.9254 83.722 54.2914 83.6653C52.0321 83.4635 49.9574 82.7336 48.0959 81.4081C46.6477 80.377 45.6852 78.9748 44.9355 77.4041C44.4366 76.359 44.0097 75.2838 43.7075 74.1623C43.5383 73.5341 43.6876 73.0307 44.3018 72.7551C45.763 72.0996 47.2535 71.5072 48.6112 70.6402C48.7576 70.5468 48.9432 70.5029 49.1131 70.629C49.3573 70.9679 49.3139 71.3659 49.3151 71.7445C49.3188 72.8864 49.8351 73.7514 50.7828 74.3228C51.4988 74.7544 51.9292 75.288 52.0038 76.1461C52.0361 76.5179 52.1367 77.1614 52.6384 77.0194C53.0907 76.8912 52.6944 76.3644 52.6661 76.0095C52.5813 74.9449 52.0668 74.2304 51.1089 73.7228C50.3353 73.3129 49.9371 72.5528 49.9279 71.6592C49.9227 71.1428 49.7362 70.7475 49.3631 70.4166C49.3602 70.1006 49.6002 69.9502 49.8087 69.7927C54.9533 65.9108 57.8732 60.6334 59.4134 54.4902C59.7455 53.1651 60.0276 51.8298 60.2477 50.4808C60.4381 49.3124 61.0825 48.5933 62.2063 48.4964C65.0194 48.2538 67.8366 48.4004 70.6504 48.5447C70.935 48.5592 71.3326 48.5496 71.4288 48.8618C71.5283 49.1854 71.16 49.3484 70.9411 49.531C70.5278 49.8759 70.1259 50.2323 69.8942 50.728C69.5867 51.3862 69.5084 52.0526 70.0312 52.6443C70.4795 53.1516 71.3064 53.2718 72.0033 52.9241C72.8009 52.5262 73.6003 52.1373 74.4331 51.8161C76.5051 51.0167 78.6505 50.8947 80.8329 51.1015C81.3381 51.1494 81.8437 51.1786 82.338 51.046C83.4107 50.7583 83.85 50.0099 83.4735 48.9777C83.2381 48.3326 83.4895 48.1155 84.0575 47.9954C84.8718 47.8232 85.704 47.7788 86.5201 47.6198C89.6432 47.0108 92.6166 46.0594 95.1208 43.9811C95.6299 43.5587 96.0508 43.07 96.4572 42.5571C96.7279 42.2155 97.0658 41.9705 97.5374 42.1441C98.0583 42.336 98.1214 42.7848 98.0812 43.2459C97.9884 44.3125 97.3917 45.1935 96.9743 46.14C96.9032 46.3013 96.7821 46.4426 96.7716 46.7566C97.6845 46.86 98.6279 46.8546 99.5398 46.8639C103.543 46.9052 107.489 46.4735 111.212 44.8659C115.133 43.1726 118.172 40.4912 120.156 36.6704C120.307 36.3806 120.473 36.0993 120.631 35.8134C120.823 35.4658 121.038 35.1132 121.514 35.2294C121.958 35.3377 121.954 35.7435 121.983 36.0948C122.176 38.4506 122.766 40.714 123.578 42.9238C124.072 44.2693 124.72 45.534 125.655 46.635C125.929 46.9578 126.108 47.3163 126.203 47.7363C127.184 52.1005 128.895 56.0883 132.195 59.2453C132.709 59.7372 132.807 60.2087 132.49 60.9059C132.031 61.9159 132.137 63.0595 132.022 64.1468C131.879 65.5051 131.668 66.8544 131.532 68.2131C131.505 68.4797 131.429 68.7386 131.238 68.9445C130.733 69.0053 130.706 68.5571 130.573 68.2729C130.223 67.5194 129.888 66.7586 129.402 66.0798C128.439 64.7347 126.95 64.4628 125.586 65.407C124.581 66.1024 123.883 67.0479 123.503 68.2131C122.765 70.4763 122.799 72.7658 123.313 75.0625C124.034 78.2839 125.4 81.2282 127.189 83.9871C127.286 84.1363 127.38 84.2881 127.524 84.3992C127.619 84.4733 127.728 84.5374 127.848 84.4821C128.029 84.3989 127.985 84.2376 127.939 84.0998C127.855 83.8438 127.686 83.6321 127.55 83.4024C125.857 80.5229 124.426 77.5282 123.886 74.2004C123.576 72.2896 123.535 70.3632 124.22 68.4911C124.575 67.5183 125.105 66.6791 125.966 66.084C127.012 65.3608 127.98 65.5151 128.775 66.5113C129.414 67.3135 129.765 68.2633 130.121 69.2056C130.33 69.7603 130.626 70.2082 131.206 70.4173C132.042 71.2355 132.415 72.2904 132.715 73.3828C134.522 77.359 136.648 81.1594 139.043 84.8091C141.775 88.9735 144.815 92.9301 147.391 97.2023C149.329 100.418 150.679 103.904 152.179 107.323C154.767 113.219 156.711 119.358 159.038 125.352C160.379 128.806 161.732 132.254 163.09 135.701C163.251 136.111 163.475 136.495 163.67 136.891C163.962 137.447 163.58 137.79 163.254 138.125C161.545 139.88 159.575 141.306 157.47 142.534C152.709 145.313 147.458 146.667 142.097 147.633C140.266 147.963 138.388 147.996 136.531 147.658C135.946 147.552 135.368 147.419 134.848 147.111C134.611 146.938 134.356 146.786 134.201 146.523C134.029 146.129 134.058 145.709 134.047 145.296C133.968 142.479 133.899 139.661 133.818 136.845C133.737 134.071 133.258 131.362 132.442 128.713C131.97 127.181 131.178 125.901 129.885 124.856C127.876 123.232 126.172 121.283 124.586 119.241C124.452 118.739 124.17 118.425 123.698 118.122C122.398 117.289 121.041 116.296 120.399 114.961C119.626 113.353 118.567 111.932 117.807 110.336C117.73 110.175 117.659 110.011 117.554 109.867C117.464 109.744 117.354 109.626 117.19 109.691C117.026 109.756 117.022 109.924 117.035 110.072C117.08 110.563 117.384 110.947 117.585 111.373C117.81 111.847 118.107 112.325 117.218 112.446C116.862 112.495 116.839 112.771 117.023 113.053C117.072 113.127 117.135 113.197 117.211 113.24C119.379 114.459 120.636 116.66 122.53 118.174C122.808 118.396 123.077 118.626 123.37 118.828C123.529 118.939 123.752 119.05 123.587 119.318C122.681 119.874 121.737 119.609 120.839 119.362C119.064 118.874 117.693 117.766 116.607 116.309C115.018 114.178 113.984 111.766 113.132 109.267C112.557 107.61 112.223 105.912 112.258 104.151C112.265 103.77 112.224 103.38 112.459 103.042C112.728 102.694 113.046 102.386 113.259 101.987C113.845 100.885 114.758 100.172 115.957 99.8374C116.435 99.7042 116.784 99.4367 117.094 99.0473C118.079 97.8119 119.138 96.6646 120.735 96.1961C121.232 96.0504 121.598 95.6964 121.863 95.2431C122.223 94.6295 122.657 94.0676 123.072 93.4911C123.87 92.3817 124.859 91.5219 126.142 91.032C126.589 90.8614 126.962 90.5623 127.399 90.3818C127.789 90.4285 128.085 90.6992 128.444 90.8205C129.659 91.3631 130.822 92.0077 132.095 92.7409C131.24 91.2204 130.577 89.7539 129.854 88.3167C129.424 87.446 128.991 86.5773 128.515 85.5804C128.033 87.1007 127.825 88.5865 126.969 89.8273C124.656 90.5474 122.911 91.966 121.718 94.0746C121.27 94.8662 120.663 95.4352 119.764 95.7745C118.734 96.1635 117.866 96.8716 117.199 97.7649C116.636 98.5186 115.974 99.0663 115.086 99.446C113.532 100.111 112.467 101.239 112.344 103.041C111.493 103.728 110.438 103.894 109.431 104.182C108.925 103.779 108.396 103.776 107.77 103.927C105.116 104.57 102.418 104.917 99.6974 105.185C97.3293 105.419 94.9613 105.49 92.5937 105.501C88.7322 105.519 84.8952 105.187 81.1303 104.255C81.0439 104.234 80.9595 104.2 80.8717 104.19C80.5644 104.153 80.1369 103.919 79.9979 104.289C79.8778 104.608 80.353 104.682 80.5805 104.841C80.9228 105.082 81.2223 105.369 81.52 105.657C85.6674 109.681 90.2778 113.11 95.1336 116.218C96.632 117.177 98.1037 118.176 99.6365 119.085C102.35 120.693 105.153 122.089 108.193 122.968C108.442 123.249 108.311 123.533 108.168 123.79C106.219 127.275 103.678 130.12 99.8031 131.526C96.7735 132.625 93.7882 132.612 90.7846 131.359C88.2439 130.299 85.8475 129 83.7998 127.169C81.2618 124.9 79.3686 122.157 78.3235 118.88C78.2157 118.542 78.1228 118.196 78.1263 117.835C78.0867 117.402 78.0595 116.966 77.9217 116.548Z" fill="#FFB864"/>
<path d="M152.393 242.712C152.482 244.404 153.014 246.013 153.351 247.657C154.236 251.975 154.978 256.318 155.764 260.654C156.503 264.727 157.321 268.786 158.122 272.848C158.884 276.707 159.612 280.572 160.14 284.472C160.639 288.164 161.217 291.847 161.623 295.55C162.091 299.823 162.43 304.115 162.324 308.418C162.276 310.365 162.286 312.322 162.018 314.265C161.928 314.916 161.686 315.204 161.017 315.226C155.947 315.4 150.877 315.338 145.806 315.305C144.412 315.295 143.017 315.37 141.622 315.382C138.241 315.412 134.86 315.464 131.479 315.44C126.231 315.403 120.983 315.455 115.734 315.503C111.021 315.547 106.306 315.526 101.592 315.534C101.691 312.989 101.847 310.446 101.954 307.902C102.051 305.593 102.098 303.282 102.171 300.971C102.299 296.943 102.251 292.911 102.362 288.882C102.413 287.016 102.376 285.146 102.381 283.28C102.39 279.782 102.443 276.283 102.536 272.789C102.662 268.048 102.721 263.306 102.79 258.566C102.845 254.741 102.543 250.913 102.54 247.086C102.538 243.266 102.47 239.433 103.169 235.646C103.275 235.073 103.144 234.466 103.513 233.928C103.674 233.692 103.462 233.541 103.206 233.577C103 233.606 102.825 233.735 102.647 233.843C99.6432 235.659 96.3529 236.904 93.26 238.543C93.0757 238.64 92.8735 238.695 92.6591 238.667C92.2408 238.266 92.4629 237.767 92.5013 237.326C92.6927 235.138 92.7982 232.947 92.6461 230.756C92.2263 224.708 91.4823 218.715 89.3241 212.992C88.3253 210.343 87.0495 207.841 85.3231 205.581C85.0942 205.281 84.6821 204.994 84.9647 204.502C85.3983 204.243 85.8771 204.276 86.3439 204.322C88.2836 204.512 90.232 204.304 92.1733 204.472C93.1471 204.556 94.1094 204.358 95.0659 204.186C95.3478 204.216 95.5671 204.375 95.7493 204.571C97.5666 206.523 99.5735 208.315 100.925 210.663C102.925 214.136 104.039 217.88 104.527 221.855C104.938 225.206 104.71 228.482 103.922 231.746C103.712 232.612 104.071 232.939 104.933 232.683C107.015 232.066 108.997 231.179 110.988 230.326C114.516 228.815 118.082 227.434 121.854 226.65C124.239 226.154 126.67 225.958 129.06 225.489C131.406 225.03 133.641 224.252 135.826 223.301C136.254 223.114 136.663 222.835 137.168 222.884C137.457 222.997 137.512 223.274 137.599 223.521C139.317 228.388 141.867 232.785 145.162 236.743C146.584 238.45 148.088 240.091 149.863 241.46C150.631 242.052 151.52 242.357 152.393 242.712Z" fill="#DD2646"/>
<path d="M132.716 73.3834C132.218 72.4385 131.72 71.4936 131.222 70.5487C131.131 70.0189 130.99 69.4905 131.175 68.9525C131.467 66.4274 131.759 63.9025 132.052 61.3775C132.072 61.2023 132.03 60.9514 132.129 60.8647C132.967 60.1331 132.349 59.7171 131.829 59.2377C129.591 57.1741 128.229 54.5488 127.155 51.7625C126.636 50.4165 126 49.0912 125.962 47.5984C125.958 47.4368 125.858 47.2482 125.745 47.1231C123.771 44.9245 122.94 42.2102 122.287 39.4243C122.024 38.305 121.71 37.1876 121.742 36.0159C121.749 35.7698 121.821 35.4477 121.442 35.3703C121.081 35.2969 120.99 35.5928 120.878 35.824C120.014 37.592 118.982 39.2415 117.631 40.6876C114.481 44.057 110.522 45.8343 106.054 46.6205C102.836 47.1868 99.5977 47.2287 96.2906 46.9644C96.6922 46.1446 97.09 45.3589 97.4626 44.5615C97.6754 44.1061 97.8829 43.6415 97.8915 43.1228C97.8969 42.7884 97.8859 42.4652 97.4979 42.3118C97.1033 42.1558 96.8607 42.3896 96.6678 42.6531C94.9699 44.9696 92.5206 46.1381 89.9134 47.0316C87.8417 47.7417 85.6656 48.0115 83.4923 48.322C84.3238 50.4609 83.3313 51.6429 80.9503 51.3747C78.8899 51.1425 76.8723 51.219 74.8998 51.9178C73.9473 52.2552 73.0212 52.6442 72.137 53.1362C71.3622 53.5673 70.4261 53.4734 69.8526 52.8759C69.2435 52.241 69.263 51.4944 69.5833 50.7251C69.9283 49.8964 70.6908 49.4549 71.4681 48.8172C68.353 48.6553 65.4045 48.5279 62.4522 48.6827C61.2556 48.7454 60.6496 49.3871 60.4636 50.562C59.6475 55.7155 58.1049 60.5932 54.9954 64.8754C53.4298 67.0315 51.5207 68.8323 49.3953 70.4188C49.3464 70.5882 49.254 70.6902 49.0602 70.6336C47.5942 71.5332 46.0596 72.293 44.4549 72.9138C44.0016 73.0892 43.6806 73.3778 43.8624 73.9307C44.5569 76.0424 45.2769 78.1367 46.7758 79.86C48.58 81.9343 50.9213 82.9684 53.5731 83.318C54.709 83.4678 55.4659 83.7502 56.108 84.8826C58.1037 88.4014 60.723 91.4745 63.6801 94.229C65.2123 95.6562 66.9022 96.9143 68.5208 98.2487C66.2682 98.3695 64.0113 98.5117 61.8805 97.5319C61.5563 97.3826 61.4346 97.4897 61.2559 97.76C60.6101 98.7374 59.6742 99.0646 58.5193 98.9698C54.8808 98.6713 52.5139 96.367 50.4048 93.7519C46.0823 88.3922 43.5368 82.1895 42.0592 75.5202C41.872 74.6759 41.5159 74.2971 40.6563 74.2261C36.6418 73.8946 33.8049 69.7331 34.4302 65.8064C34.8936 62.8969 36.0028 60.174 36.5907 57.3064C37.1833 54.4155 37.7945 51.5288 37.942 48.5742C38.1993 43.4187 38.2964 38.2492 39.6763 33.2194C40.8467 28.9535 42.6205 25.0112 45.3387 21.4661C49.0434 16.6344 53.7651 13.0419 58.8418 9.83015C64.6645 6.14654 71.1003 4.00605 77.7078 2.28773C81.1669 1.38829 84.6708 0.77795 88.2258 0.376324C91.3319 0.0254284 94.4504 -0.0479447 97.5502 0.0261314C102.169 0.136719 106.757 0.749338 110.984 2.81241C114.37 4.46543 117.577 6.43915 120.29 9.08869C121.96 10.7185 123.381 12.5834 124.901 14.3544C126.035 15.6757 127.317 16.8579 128.3 18.3231C130.33 21.3485 131.663 24.6431 132.226 28.226C132.989 33.0871 134.468 37.6843 136.755 42.0531C138.261 44.9287 139.802 47.8161 140.426 51.0646C140.924 53.6597 141.116 56.2427 139.916 58.7091C139.071 60.445 137.614 61.3796 135.697 61.5059C135.068 61.5474 134.891 61.7406 134.921 62.3533C135.08 65.6353 134.362 68.7491 133.052 71.7437C132.826 72.2617 132.721 72.815 132.716 73.3834Z" fill="#DED2DE"/>
<path d="M168.949 148.704C171.581 155.552 173.442 162.625 175.049 169.769C176.148 174.657 177.628 179.441 178.924 184.274C180.199 189.025 181.088 193.852 181.753 198.728C182.166 201.754 182.495 204.791 182.612 207.832C182.972 217.203 181.033 225.992 175.483 233.74C172.806 237.477 169.417 240.396 165.056 242.051C161.244 243.497 157.369 243.582 153.451 242.52C153.223 242.458 152.991 242.41 152.762 242.356C151.3 241.363 149.74 240.531 148.476 239.238C145.814 236.513 143.493 233.546 141.528 230.28C140.101 227.909 139.064 225.362 137.921 222.86C137.846 222.696 137.813 222.523 137.809 222.341C137.538 219.985 137.139 217.647 136.883 215.291C136.557 212.288 136.315 209.277 135.993 206.275C135.658 203.153 135.549 200.016 135.254 196.892C135.099 195.24 135.187 193.572 135.073 191.917C134.983 190.626 134.98 189.305 134.381 188.099C134.128 186.987 134.112 185.843 134.211 184.733C134.416 182.419 134.227 180.107 134.286 177.796C134.348 175.4 134.364 172.993 134.358 170.591C134.351 167.925 134.469 165.257 134.503 162.589C134.51 162.057 134.574 161.523 134.722 161.006C134.97 160.514 135.411 160.65 135.815 160.683C141.781 161.174 147.589 160.45 153.19 158.318C157.603 156.638 161.89 154.686 165.697 151.835C166.847 150.974 168.14 150.231 168.717 148.789C168.752 148.702 168.859 148.7 168.949 148.704Z" fill="#DD2646"/>
<path d="M134.876 146.936C137.236 147.882 139.703 147.76 142.113 147.393C145.644 146.855 149.094 145.897 152.446 144.648C156.486 143.143 160.098 140.935 163.162 137.874C163.434 137.602 163.733 137.339 163.67 136.892C164.353 137.691 164.677 138.685 165.113 139.613C166.456 142.47 167.704 145.369 168.797 148.332C164.733 152.075 160.029 154.774 154.935 156.842C151.541 158.219 148.072 159.323 144.431 159.832C141.749 160.206 139.062 160.361 136.362 160.116C135.833 160.068 135.369 160.024 135.082 160.606C135.005 160.761 134.827 160.651 134.737 160.51C134.541 160.056 134.601 159.583 134.608 159.11C134.668 155.303 135.079 151.499 134.716 147.688C134.691 147.421 134.668 147.154 134.876 146.936Z" fill="#DD2646"/>
<path d="M92.5682 238.582C95.3912 237.211 98.215 235.841 101.037 234.467C101.704 234.142 102.332 233.752 102.932 233.312C103.243 233.085 103.627 233.018 103.902 233.329C104.193 233.659 104.025 233.988 103.73 234.258C103.623 234.355 103.433 234.471 103.439 234.568C103.554 236.346 103.027 238.058 102.942 239.819C102.639 246.074 103.039 252.319 103.071 258.568C103.087 261.642 103.011 264.719 102.963 267.794C102.925 270.187 102.848 272.58 102.802 274.973C102.745 277.93 102.723 280.887 102.674 283.844C102.625 286.771 102.626 289.698 102.585 292.626C102.528 296.735 102.467 300.844 102.363 304.952C102.3 307.46 102.176 309.967 102.03 312.471C101.984 313.267 101.872 314.06 101.941 314.859C101.968 315.175 101.784 315.348 101.592 315.534C101.476 315.538 101.359 315.542 101.243 315.546C100.761 315.235 100.638 314.771 100.677 314.235C100.93 310.757 101.057 307.274 101.131 303.787C101.18 301.452 101.249 299.117 101.299 296.782C101.37 293.407 101.366 290.034 101.387 286.659C101.406 283.642 101.459 280.623 101.502 277.605C101.538 275.122 101.595 272.637 101.658 270.154C101.73 267.314 101.712 264.472 101.804 261.636C101.895 258.843 101.726 256.064 101.715 253.279C101.703 250.018 101.577 246.756 101.661 243.498C101.725 240.996 101.809 238.481 102.25 236.002C102.286 235.798 102.389 235.555 102.192 235.427C101.998 235.301 101.808 235.508 101.625 235.59C96.8439 237.743 92.2355 240.26 87.3988 242.296C82.9497 244.169 78.4714 245.967 73.9628 247.692C68.6249 249.734 63.2843 251.766 57.7296 253.16C54.4078 253.994 51.045 254.614 47.6654 255.179C43.7001 255.842 39.7063 256.054 35.716 255.963C31.3448 255.863 26.9805 255.442 22.8672 253.728C22.703 253.66 22.5442 253.578 22.3846 253.499C22.0693 253.344 21.9496 253.081 22.0734 252.762C22.2138 252.401 22.494 252.426 22.8119 252.551C26.9738 254.185 31.3329 254.594 35.7578 254.785C40.6714 254.998 45.476 254.305 50.2894 253.502C56.173 252.52 61.8547 250.844 67.4543 248.815C74.2774 246.342 81.0164 243.662 87.6937 240.826C88.9918 240.275 90.3338 239.786 91.5271 239.001C91.8025 238.683 92.0942 238.407 92.5682 238.582Z" fill="#94374D"/>
<path d="M134.903 160.664C135.011 159.878 135.354 159.757 136.191 159.842C138.954 160.12 141.716 159.966 144.478 159.56C150.475 158.678 155.949 156.394 161.225 153.541C163.258 152.442 165.129 151.096 166.921 149.641C167.127 149.474 167.358 149.291 167.467 149.063C167.744 148.479 168.218 148.328 168.796 148.332C168.927 148.423 168.963 148.553 168.949 148.704C168.655 150.239 167.354 150.936 166.267 151.724C160.275 156.069 153.633 159.032 146.378 160.468C142.607 161.215 138.753 161.324 134.913 160.818C134.871 160.787 134.856 160.753 134.867 160.718C134.878 160.683 134.89 160.665 134.903 160.664Z" fill="#94374D"/>
<path d="M137.965 222.603C138.57 223.256 138.729 224.128 139.065 224.906C141.111 229.638 143.81 233.935 147.357 237.696C148.352 238.751 149.334 239.807 150.509 240.667C150.963 241 151.418 241.317 151.962 241.498C152.372 241.634 152.689 241.89 152.762 242.356C152.639 242.475 152.517 242.594 152.394 242.712C151.324 242.827 150.509 242.241 149.751 241.646C147.388 239.795 145.439 237.542 143.623 235.167C141.163 231.949 139.298 228.399 137.741 224.678C137.514 224.135 137.326 223.573 137.268 222.978C137.289 222.462 137.554 222.397 137.965 222.603Z" fill="#94374D"/>
<path d="M78.2879 117.796C78.8526 120.508 80.2315 122.81 81.9607 124.91C84.722 128.264 88.3149 130.403 92.4182 131.647C96.5294 132.894 100.208 131.682 103.497 129.176C105.598 127.573 107.129 125.46 108.229 123.049C108.174 122.424 108.598 121.958 108.779 121.411C109.007 120.718 109.281 120.042 109.452 119.329C109.521 119.039 109.502 118.646 109.978 118.662C110.36 118.888 110.403 119.294 110.479 119.663C111.856 126.291 113.175 132.932 114.216 139.622C114.506 141.487 114.207 143.358 114.01 145.215C113.116 153.661 112.048 162.087 110.595 170.457C109.453 177.042 108.132 183.593 106.128 189.982C104.686 194.577 103.079 199.108 100.636 203.292C100.144 203.635 99.6506 203.942 99.1244 203.348C96.2274 198.907 94.0709 194.08 91.9325 189.259C87.4441 179.138 83.7143 168.735 80.7619 158.063C79.5065 153.524 78.196 148.999 77.1408 144.406C77.029 143.919 77.1477 143.388 76.8498 142.942C76.7422 142.841 76.7225 142.729 76.8094 142.604C76.5661 138.512 77.0608 134.453 77.3453 130.384C77.5184 127.907 77.5907 125.424 77.7096 122.944C77.7917 121.231 77.8763 119.519 77.9597 117.807C78.0652 117.685 78.1747 117.682 78.2879 117.796Z" fill="#FFF9FD"/>
<path d="M99.1225 203.348C99.6198 203.624 100.091 203.301 100.576 203.286C101.389 202.86 102.297 202.913 103.165 202.814C105.648 202.533 108.097 202.117 110.471 201.315C112.992 200.463 115.102 198.922 117.124 197.263C120.455 194.531 123.808 191.834 127.686 189.895C129.491 188.992 131.326 188.14 133.382 187.96C133.761 188.045 134.158 187.994 134.535 188.103C134.979 188.314 135.04 188.763 135.091 189.153C135.222 190.146 135.359 191.149 135.358 192.149C135.355 195.232 135.661 198.299 135.831 201.372C136.034 205.051 136.405 208.724 136.831 212.385C137.194 215.512 137.443 218.659 138.106 221.746C138.171 222.053 138.11 222.334 137.964 222.603C137.664 222.601 137.396 222.661 137.267 222.978C135.243 223.809 133.239 224.692 131.124 225.278C128.786 225.925 126.377 226.177 123.988 226.536C120.758 227.023 117.65 227.928 114.61 229.106C111.41 230.346 108.321 231.858 105.051 232.921C104.633 233.057 104.255 233.255 103.815 232.874C103.357 232.477 103.555 232.086 103.667 231.666C104.351 229.105 104.647 226.494 104.475 223.855C104.193 219.536 103.214 215.387 101.158 211.542C100.202 209.755 98.9522 208.177 97.5132 206.76C96.7107 205.97 95.952 205.145 95.2109 204.3C95.1003 203.979 95.1501 203.688 95.375 203.431C96.6283 203.586 97.8803 203.684 99.1225 203.348Z" fill="#FFB864"/>
<path d="M95.3755 203.431C95.4117 203.738 95.3964 204.035 95.2116 204.3C93.8635 204.939 92.4193 204.762 91.0096 204.728C90.4551 204.715 89.8883 204.615 89.3322 204.668C87.8494 204.812 86.3762 204.49 84.8964 204.611C84.6621 204.81 84.4323 204.809 84.2074 204.595C84.0101 204.414 83.7663 204.456 83.5311 204.452C80.8398 204.404 78.1455 204.417 75.4577 204.291C71.4283 204.104 67.3992 204.083 63.3763 204.303C58.9682 204.544 54.6865 205.388 50.8014 207.636C48.6564 208.877 46.8443 210.506 45.2374 212.402C43.8588 214.029 42.4938 215.661 41.2401 217.387C41.0256 217.682 40.7511 217.833 40.412 217.546C40.1495 217.324 40.069 217.074 40.2975 216.773C42.9823 213.235 45.5618 209.599 49.3373 207.08C49.7554 206.801 50.2228 206.597 50.6538 206.336C50.839 206.223 51.1797 206.203 51.1249 205.895C51.0816 205.651 50.8119 205.551 50.5888 205.471C49.1498 204.948 47.7132 204.931 46.2508 205.419C43.1161 206.466 40.3555 208.183 37.7358 210.144C35.6953 211.672 33.7702 213.338 32.0384 215.217C31.718 215.564 31.3613 215.887 30.9085 215.465C30.4131 215.004 30.8565 214.643 31.1488 214.347C35.1161 210.336 39.4695 206.863 44.7593 204.723C45.6645 204.356 46.6177 204.129 47.5849 204.002C47.9842 203.95 48.1208 203.818 48.1668 203.407C48.3834 201.467 48.4492 199.52 48.521 197.573C48.6736 193.434 48.7115 189.292 48.7775 185.151C48.8575 180.132 48.6374 175.124 48.4489 170.117C48.3767 168.199 48.3321 166.267 48.1573 164.351C47.8083 160.525 47.706 156.679 47.1783 152.868C47.0204 151.727 46.976 150.571 46.8775 149.421C46.8476 149.073 46.8785 148.717 47.2828 148.645C47.738 148.563 47.8419 148.927 47.9697 149.284C48.2847 150.166 48.2488 151.104 48.3314 152.002C48.5568 154.444 48.7861 156.889 48.9639 159.338C49.273 163.594 49.4182 167.857 49.6841 172.113C49.8656 175.016 49.9623 177.918 50.0134 180.82C50.0747 184.312 50.0319 187.807 49.9432 191.299C49.86 194.576 49.6613 197.849 49.5059 201.124C49.4766 201.743 49.5095 202.389 49.3395 202.971C49.1201 203.724 49.381 204.002 50.0687 204.118C50.3575 204.166 50.6926 204.223 50.9041 204.399C52.264 205.53 53.6131 205.02 55.0387 204.524C57.309 203.732 59.6835 203.439 62.0755 203.219C64.0264 203.04 65.9777 202.913 67.9311 202.928C71.8947 202.959 75.8591 203.02 79.8204 203.152C82.685 203.246 85.5475 203.392 88.4136 203.471C90.134 203.518 91.8483 203.463 93.5651 203.483C94.171 203.491 94.7613 203.006 95.3755 203.431Z" fill="#94374D"/>
<path d="M84.2068 204.595C84.4364 204.6 84.6662 204.605 84.8958 204.611C88.5676 209.15 90.4534 214.456 91.5696 220.1C92.1375 222.971 92.454 225.865 92.7268 228.779C92.9599 231.268 92.9715 233.74 92.8575 236.219C92.8214 237.005 92.8224 237.815 92.5683 238.583C92.2212 238.722 91.8742 238.862 91.5272 239.001C91.3809 238.735 91.3334 238.474 91.3866 238.154C91.95 234.773 91.7189 231.393 91.4462 228C91.2024 224.965 90.7957 221.965 90.0965 219.006C89.0089 214.404 87.4851 209.98 84.6307 206.127C84.2682 205.638 83.824 205.21 83.3535 204.681C83.6991 204.646 83.953 204.621 84.2068 204.595Z" fill="#94374D"/>
<path d="M76.8083 142.605C76.8216 142.717 76.8352 142.83 76.8485 142.943C76.4067 143.597 75.9993 143.538 75.5446 142.929C74.0882 140.978 73.2453 138.725 72.3739 136.493C70.0142 130.447 68.3443 124.195 66.937 117.87C66.7912 117.215 66.6039 116.548 66.6523 115.854C66.6753 115.524 66.6253 115.126 67.0645 115.096C67.4851 115.067 67.6762 115.394 67.7233 115.789C67.9855 117.995 68.5894 120.129 69.1577 122.266C70.6335 127.814 72.2832 133.307 74.5581 138.593C75.1686 140.012 75.8615 141.378 76.8083 142.605Z" fill="#94374D"/>
<path d="M46.84 271.035C50.4044 271.103 53.9504 270.723 57.5017 270.53C60.425 270.37 63.347 270.127 66.2692 269.922C67.4935 269.836 68.7581 269.909 69.9677 269.548C70.3785 269.426 70.7908 269.563 70.9072 269.999C71.0467 270.521 70.5765 270.657 70.2133 270.733C69.6084 270.861 68.9863 270.985 68.3726 270.98C65.9367 270.96 63.5066 271.173 61.0972 271.41C54.4435 272.064 47.7684 272.008 41.1031 272.26C41.0141 272.264 40.925 272.265 40.836 272.267C40.4296 272.28 40.0102 272.274 40.0157 271.717C40.0204 271.219 40.4133 271.206 40.784 271.196C42.4463 271.153 44.1088 271.108 45.7711 271.064C46.1277 271.054 46.4838 271.045 46.84 271.035Z" fill="#94374D"/>
<path d="M76.4653 116.372C76.3373 116.728 76.0989 116.981 75.7563 117.119C73.9797 117.834 72.1455 118.426 70.6006 119.625C70.3389 119.828 69.9487 119.938 69.7093 119.651C69.451 119.341 69.7077 119.043 69.9499 118.808C71.0159 117.776 72.3725 117.249 73.6969 116.671C74.3183 116.4 74.9474 116.137 75.5929 115.933C75.9618 115.816 76.3796 115.809 76.4653 116.372Z" fill="#94374D"/>
<path d="M71.936 126.686C71.7578 126.688 71.5482 126.718 71.4638 126.526C71.3369 126.238 71.3741 125.958 71.5835 125.696C72.1162 125.029 72.8842 124.678 73.5653 124.215C74.1756 123.801 74.8384 123.464 75.4705 123.08C75.816 122.871 76.1393 122.792 76.3795 123.2C76.6343 123.633 76.311 123.866 76.01 124.058C74.9885 124.71 73.9576 125.346 72.9265 125.983C72.5807 126.196 72.4113 126.657 71.936 126.686Z" fill="#94374D"/>
<path d="M75.8759 131.226C76.2205 131.266 76.5096 131.521 76.2693 131.863C75.7165 132.648 75.1002 133.4 74.4313 134.089C74.1632 134.366 73.8167 134.181 73.7405 133.751C73.6101 133.014 75.086 131.224 75.8759 131.226Z" fill="#94374D"/>
<path d="M78.2857 117.797C78.1762 117.8 78.0667 117.803 77.9571 117.807C77.9448 117.387 77.9324 116.968 77.9199 116.548C78.1537 116.931 78.2584 117.353 78.2857 117.797Z" fill="#F1CE9D"/>
<path d="M133.482 188.141C129.417 188.798 126.049 190.943 122.728 193.186C120.372 194.777 118.264 196.688 116.031 198.437C113.188 200.664 110.002 202.017 106.46 202.588C104.508 202.903 102.554 203.198 100.576 203.286C100.505 203.019 100.527 202.783 100.68 202.527C103.568 197.692 105.176 192.355 106.714 186.999C108.506 180.759 109.694 174.384 110.754 167.988C111.682 162.387 112.428 156.758 113.074 151.118C113.414 148.152 113.742 145.184 114.034 142.213C114.218 140.335 113.82 138.493 113.488 136.662C112.646 132.012 111.771 127.368 110.86 122.731C110.594 121.379 110.438 119.991 109.874 118.709C109.622 118.483 109.625 118.181 109.659 117.887C109.977 115.085 109.748 112.28 109.703 109.477C109.698 109.123 109.67 108.767 109.778 108.422C109.845 108.25 109.955 108.101 110.156 108.125C111.312 108.264 112.472 108.405 113.347 109.305C114.288 111.726 115.238 114.14 116.838 116.229C118.25 118.073 120.052 119.235 122.404 119.413C122.801 119.444 123.212 119.304 123.617 119.243C123.931 118.964 124.285 118.9 124.679 119.04C126.576 121.231 128.426 123.464 130.746 125.25C131.43 125.776 131.855 126.548 132.193 127.349C133.074 129.435 133.531 131.628 133.806 133.862C134.325 138.083 134.105 142.336 134.338 146.569C134.164 147.141 134.099 147.721 134.125 148.321C134.298 152.41 134.043 156.492 133.962 160.578C133.903 163.538 133.809 166.497 133.781 169.459C133.743 173.487 133.725 177.514 133.722 181.542C133.72 183.317 133.72 185.094 133.729 186.871C133.732 187.306 133.828 187.769 133.482 188.141Z" fill="#DD2646"/>
<path d="M109.961 108.192C110.005 111.698 110.305 115.207 109.874 118.71C109.478 120.215 109.028 121.699 108.227 123.05C107.681 123.107 107.178 122.952 106.671 122.767C102.893 121.384 99.4812 119.329 96.1183 117.154C92.1447 114.584 88.2736 111.891 84.6569 108.828C83.3872 107.753 82.2138 106.585 80.9789 105.478C80.7391 105.263 80.5476 104.981 80.2043 104.903C79.7928 104.81 79.4173 104.626 79.5699 104.133C79.7305 103.614 80.2425 103.779 80.5611 103.862C81.792 104.182 83.0267 104.464 84.2886 104.628C86.246 104.883 88.2046 105.08 90.1789 105.202C92.556 105.35 94.9212 105.243 97.2821 105.126C100.935 104.946 104.574 104.536 108.121 103.586C108.794 103.406 109.194 103.503 109.477 104.116C110.159 105.413 110.383 106.764 109.961 108.192Z" fill="#F49836"/>
<path d="M112.602 46.0805C115.114 46.0996 117.552 46.4458 119.751 47.7913C120.457 48.2234 120.906 48.8201 120.749 49.679C120.564 50.6994 119.899 51.242 118.904 51.2751C118.242 51.2972 117.616 51.0847 116.988 50.9277C115.429 50.5379 113.855 50.3423 112.248 50.3931C111.241 50.4248 110.233 50.3859 109.257 50.1194C108.151 49.8171 107.591 49.1589 107.624 48.2998C107.663 47.3119 108.38 46.5 109.509 46.387C110.537 46.2843 111.551 45.9985 112.602 46.0805Z" fill="#DED2DE"/>
<path d="M133.484 188.141C133.441 184.233 133.326 180.324 133.379 176.417C133.42 173.403 133.4 170.388 133.481 167.375C133.572 163.951 133.648 160.526 133.757 157.104C133.858 153.939 133.956 150.781 133.821 147.617C133.802 147.181 133.701 146.687 134.34 146.569C134.581 146.601 134.764 146.717 134.877 146.936C135.368 149.911 135.019 152.892 134.983 155.873C134.964 157.47 134.782 159.066 134.904 160.664C134.899 160.716 134.902 160.768 134.914 160.819C134.562 169.91 134.551 179.007 134.537 188.103C134.195 188.374 133.844 188.385 133.484 188.141Z" fill="#94374D"/>
<path d="M131.174 68.9528C131.327 69.4809 131.586 70.0057 131.221 70.549C130.449 70.6329 130.2 70.0766 129.976 69.5123C129.604 68.5781 129.298 67.6186 128.689 66.7922C127.833 65.6329 126.834 65.5285 125.766 66.5183C124.403 67.781 124.014 69.4454 123.948 71.1899C123.779 75.7045 125.617 79.6014 127.813 83.3754C127.918 83.5544 128.049 83.7187 128.143 83.9023C128.301 84.2088 128.589 84.5611 128.129 84.8221C127.701 85.0649 127.39 84.7932 127.172 84.439C126.351 83.1021 125.525 81.7708 124.876 80.3337C123.584 77.4758 122.581 74.5401 122.71 71.3614C122.808 68.9779 123.294 66.6993 125.448 65.2001C126.913 64.18 128.509 64.4732 129.573 65.898C130.274 66.8359 130.592 67.9605 131.174 68.9528Z" fill="#F49836"/>
<path d="M111.634 57.1819C112.552 58.1855 112.791 59.1797 112.192 60.238C111.644 61.2059 110.806 61.7627 109.637 61.703C108.226 61.631 107.294 60.5288 107.464 59.1267C107.493 58.8932 107.713 58.6301 107.297 58.4717C106.434 58.144 106.804 57.6529 107.227 57.2783C108.351 56.2814 109.741 55.8345 111.185 55.6024C113.429 55.2419 115.484 55.742 117.304 57.1405C117.623 57.3857 117.993 57.6127 117.704 58.0638C117.435 58.483 117.036 58.3362 116.675 58.1581C115.131 57.398 113.516 57.0101 111.634 57.1819Z" fill="#6E451F"/>
<path d="M80.143 58.3883C80.7744 60.5689 80.0251 62.0491 78.1205 62.4797C76.366 62.8764 74.9684 61.6081 74.6274 59.2926C74.2273 59.3011 73.9184 59.5401 73.5854 59.7102C73.1609 59.9268 72.6751 60.2618 72.3447 59.6911C71.9947 59.0865 72.5199 58.7834 72.9661 58.5324C74.5382 57.6477 76.2477 57.2015 78.0264 57.0036C79.2425 56.8683 80.4502 56.961 81.6391 57.2532C81.8952 57.3163 82.1603 57.3872 82.3867 57.5153C82.6941 57.6895 82.8675 57.9789 82.7189 58.3396C82.5839 58.667 82.2826 58.717 81.9693 58.6607C81.3706 58.5529 80.7895 58.3005 80.143 58.3883Z" fill="#6E451F"/>
<path d="M112.31 102.959C112.055 102.603 112.096 102.249 112.285 101.874C112.906 100.644 113.763 99.6314 115.094 99.1864C115.847 98.9347 116.403 98.4941 116.83 97.8885C117.677 96.6852 118.793 95.8389 120.162 95.3654C120.936 95.0975 121.208 94.4359 121.569 93.8566C122.663 92.1027 124.035 90.6956 126.011 89.9492C126.322 89.8318 126.623 89.7394 126.951 89.7257C127.573 89.6624 127.563 90.0103 127.42 90.4451C127.263 90.7563 126.99 90.9424 126.676 91.0403C124.642 91.6765 123.375 93.1963 122.35 94.923C121.828 95.8009 121.17 96.3591 120.221 96.662C118.871 97.0932 118.081 98.2117 117.238 99.2343C116.941 99.5947 116.663 99.9079 116.205 100.007C114.828 100.305 113.89 101.142 113.288 102.384C113.139 102.692 112.981 102.962 112.601 103C112.494 103.061 112.394 103.066 112.31 102.959Z" fill="#F49836"/>
<path d="M104.03 72.7977C104.356 75.6226 102.178 77.8223 99.3542 78.2183C98.6359 78.319 97.9608 78.4001 97.2584 78.2248C96.8686 78.1273 96.5733 77.9428 96.6713 77.4966C96.7659 77.0659 97.0989 76.9751 97.4975 77.0578C98.7895 77.3258 99.9536 76.9414 101.076 76.3521C102.841 75.4253 103.177 73.2629 102.853 71.7956C102.552 70.428 102.02 69.1431 101.058 68.0753C100.806 67.7951 100.501 67.4755 100.928 67.0891C101.361 66.697 101.661 67.0398 101.891 67.3293C103.131 68.8887 104.027 70.5946 104.03 72.7977Z" fill="#F49836"/>
<path d="M124.68 119.04C124.355 119.259 123.985 119.239 123.619 119.243C122.101 118.239 120.791 116.997 119.672 115.581C118.99 114.719 118.102 114.167 117.249 113.542C116.935 113.312 116.455 113.181 116.598 112.626C116.748 112.046 117.209 112.114 117.797 112.244C117.487 111.658 117.259 111.217 117.02 110.782C116.859 110.491 116.751 110.193 116.768 109.852C116.781 109.597 116.836 109.374 117.113 109.298C117.389 109.223 117.609 109.386 117.703 109.595C118.363 111.061 119.636 112.266 120.084 113.716C120.687 115.667 122.335 116.454 123.486 117.776C123.861 118.207 124.842 118.073 124.68 119.04Z" fill="#F49836"/>
<path d="M112.311 102.959C112.409 102.972 112.506 102.986 112.603 103C112.336 104.833 112.632 106.613 113.114 108.374C113.198 108.683 113.271 108.995 113.349 109.306C112.283 108.743 111.097 108.544 109.962 108.192C109.946 106.816 109.742 105.463 109.479 104.116C110.328 103.499 111.425 103.486 112.311 102.959Z" fill="#FDFDFC"/>
<path d="M97.83 83.9133C98.9587 83.8657 100.061 84.0876 101.172 84.2093C101.502 84.2454 101.846 84.3483 101.818 84.7852C101.79 85.2239 101.449 85.2516 101.106 85.2697C100.395 85.3069 99.6921 85.1731 98.9936 85.1114C97.0722 84.9416 95.2538 85.3548 93.4476 85.8797C92.998 86.0103 92.6549 85.999 92.4881 85.5777C92.298 85.0971 92.6775 84.8875 93.0623 84.759C94.6102 84.2426 96.2179 84.0629 97.83 83.9133Z" fill="#F49836"/>
<path d="M79.4609 88.9111C79.7734 86.9816 80.4754 85.0832 81.4315 83.2724C81.6515 82.8556 81.9195 82.4644 82.1428 82.0492C82.3273 81.7064 82.6027 81.5484 82.9409 81.7284C83.3513 81.9466 83.2441 82.2806 83.0643 82.6383C82.2688 84.2204 81.4159 85.7804 80.9377 87.5001C80.7883 88.0373 80.6769 88.5869 80.581 89.1365C80.5084 89.5527 80.3672 89.9383 79.8906 89.8816C79.403 89.8237 79.5343 89.3535 79.4609 88.9111Z" fill="#F49836"/>
<path d="M127.422 90.4451C127.309 90.1773 127.357 89.8043 126.953 89.726C127.506 88.2353 128.019 86.7322 128.542 85.1338C129.044 86.1738 129.546 87.2137 130.049 88.2538C129.719 89.3012 129.163 90.2098 128.373 90.9742C128.006 90.8878 127.649 90.7836 127.422 90.4451Z" fill="#EAE4E9"/>
<path d="M49.0601 70.634C49.172 70.5624 49.2836 70.4907 49.3954 70.4191C49.9285 70.3828 50.1753 70.6433 50.1342 71.1637C50.0256 72.5378 50.7139 73.3987 51.8945 73.9625C52.4464 74.226 52.768 74.6532 52.7483 75.2939C52.7332 75.7858 53.0265 76.1958 53.1185 76.6578C53.1779 76.9554 53.1868 77.2822 52.8378 77.4188C52.4736 77.5613 52.0976 77.4125 52.0648 77.0523C51.9228 75.4951 50.8366 74.6687 49.7737 73.7395C48.86 72.9409 49.0854 71.7226 49.0601 70.634Z" fill="#F49836"/>
<path d="M68.9797 61.88C68.2 61.9042 67.615 61.9291 67.0295 61.9376C66.7475 61.9416 66.4789 61.8642 66.4164 61.5438C66.3518 61.2131 66.4815 60.9291 66.8279 60.8675C67.9636 60.6658 69.1182 60.6282 70.1978 61.0551C70.7347 61.2674 70.8457 61.8387 70.4557 62.3232C69.7698 63.1749 68.7888 63.6299 67.8423 64.1133C67.5883 64.243 67.2978 64.1479 67.1598 63.8706C67.0044 63.5585 67.1331 63.3008 67.4019 63.1035C67.8904 62.7448 68.5358 62.5925 68.9797 61.88Z" fill="#F49836"/>
<path d="M128.371 90.9736C128.93 90.0668 129.489 89.16 130.048 88.2532C130.874 89.8412 131.597 91.4811 132.426 93.1399C131.074 92.4178 129.723 91.6958 128.371 90.9736Z" fill="#FDFDFC"/>
<path d="M121.213 60.9277C121.511 61.1612 121.741 61.3293 121.957 61.5149C122.166 61.6953 122.362 61.9181 122.168 62.2C121.992 62.4556 121.74 62.5918 121.401 62.4503C120.761 62.1833 120.209 61.7603 119.784 61.2505C119.171 60.5138 119.565 59.7007 120.523 59.6194C121.328 59.5511 122.103 59.7484 122.867 59.9779C123.2 60.0777 123.342 60.3135 123.281 60.6579C123.213 61.0374 122.901 60.9481 122.65 60.9847C122.206 61.0499 121.797 60.7025 121.213 60.9277Z" fill="#F49836"/>
<path d="M155.484 273.056C152.688 272.94 150.058 273.079 147.437 272.836C145.765 272.682 144.078 272.687 142.401 272.574C140.462 272.442 138.526 272.261 136.589 272.095C135.914 272.038 135.241 271.953 134.566 271.902C134.188 271.873 133.921 271.743 133.94 271.324C133.961 270.887 134.283 270.802 134.635 270.827C135.899 270.919 137.162 271.026 138.424 271.126C139.951 271.246 141.476 271.403 143.005 271.478C146.452 271.644 149.901 271.776 153.35 271.906C154 271.931 154.653 271.881 155.306 271.87C155.721 271.863 156.187 271.796 156.237 272.407C156.294 273.111 155.646 272.91 155.484 273.056Z" fill="#94374D"/>
<path d="M112.002 284.409C112.139 286.214 110.752 287.478 109.275 287.506C107.75 287.533 106.769 286.104 106.808 284.798C106.856 283.17 107.732 281.987 109.138 282.029C110.788 282.079 112.163 282.765 112.002 284.409Z" fill="#94374D"/>
<path d="M95.2773 222.878C94.7516 222.831 94.2089 223.034 94.1455 222.425C94.0847 221.842 94.6061 221.877 95.007 221.785C96.7234 221.387 98.4372 220.978 100.145 220.544C100.513 220.451 100.847 220.3 101 220.797C101.127 221.213 100.938 221.487 100.54 221.613C98.7726 222.172 96.9502 222.496 95.2773 222.878Z" fill="#94374D"/>
<path d="M95.4284 230.162C94.9476 230.173 94.6169 230.193 94.5335 229.812C94.4563 229.459 94.7108 229.248 94.991 229.138C96.7234 228.46 98.4648 227.805 100.199 227.131C100.601 226.975 100.928 227.09 101.107 227.426C101.247 227.69 101.042 227.951 100.793 228.078C99.0237 228.979 97.1243 229.54 95.4284 230.162Z" fill="#94374D"/>
<path d="M85.0691 41.6556C84.8058 41.6695 84.6114 41.6031 84.5158 41.3872C84.3764 41.0723 84.49 40.8085 84.7254 40.5871C85.2423 40.1012 85.7401 39.592 86.2845 39.1388C88.1323 37.6 89.4727 35.6505 90.673 33.6131C92.0006 31.3595 93.0003 28.9561 93.5213 26.3726C93.6031 25.9671 93.7351 25.4601 94.2878 25.6013C94.8048 25.7333 94.7133 26.1765 94.6154 26.6222C93.3326 32.4623 90.4159 37.3163 85.8779 41.2039C85.625 41.4207 85.3659 41.604 85.0691 41.6556Z" fill="#F5F4EE"/>
<path d="M81.3136 29.9037C80.9973 30.4481 80.6616 31.1379 80.226 31.7572C77.5803 35.517 74.4666 38.8766 71.2542 42.1482C70.7583 42.6534 70.2352 43.1372 69.685 43.5818C69.3689 43.8372 68.9385 44.1053 68.586 43.6659C68.2743 43.2773 68.5711 42.9441 68.8611 42.669C69.9536 41.6321 71.0939 40.6416 72.1378 39.5582C75.1149 36.4688 77.958 33.2647 80.2507 29.6144C80.4308 29.3276 80.6411 29.0641 81.0292 29.1542C81.3464 29.2277 81.263 29.5184 81.3136 29.9037Z" fill="#F5F4EE"/>
<path d="M122.426 28.5279C122.586 30.1742 122.33 31.8351 122.05 33.4964C121.983 33.8893 121.82 34.2321 121.631 34.5644C121.441 34.9 121.137 35.1291 120.747 34.9295C120.347 34.7259 120.393 34.3328 120.537 33.993C121.364 32.0372 121.452 29.9555 121.31 27.9112C121.144 25.5101 120.816 23.1071 120.182 20.7666C120.152 20.6526 120.098 20.5398 120.094 20.4248C120.08 20.0799 119.964 19.6452 120.453 19.5517C120.832 19.479 121.046 19.7813 121.138 20.1144C121.342 20.852 121.575 21.5877 121.698 22.3401C122.033 24.3752 122.484 26.3988 122.426 28.5279Z" fill="#F5F4EE"/>
<path d="M41.0058 62.4628C40.6671 62.441 40.3888 62.5256 40.3027 62.2084C40.2286 61.936 40.2449 61.6723 40.5463 61.5258C40.7849 61.4097 41.0276 61.3023 41.2669 61.1873C44.073 59.8382 46.7197 58.235 49.0817 56.1956C49.9515 55.4447 50.746 54.6074 51.6014 53.8389C51.9142 53.5579 52.3102 53.1317 52.7411 53.6031C53.1169 54.0142 52.7413 54.3513 52.4583 54.6643C50.2968 57.054 47.7082 58.8936 44.9542 60.5261C43.9624 61.114 42.982 61.7189 41.9039 62.1405C41.5756 62.2688 41.2404 62.3792 41.0058 62.4628Z" fill="#F5F4EE"/>
<path d="M109.741 26.975C109.55 30.0908 108.872 33.1067 107.845 36.0451C107.503 37.0215 107.08 37.9697 106.68 38.925C106.51 39.3313 106.338 39.8736 105.756 39.6147C105.214 39.3736 105.405 38.8688 105.59 38.4537C106.819 35.6849 107.718 32.8125 108.288 29.8385C108.493 28.7681 108.679 27.6912 108.658 26.5943C108.65 26.1642 108.637 25.6387 109.153 25.6085C109.679 25.5778 109.728 26.0956 109.73 26.5299C109.73 26.6784 109.737 26.8267 109.741 26.975Z" fill="#F5F4EE"/>
<path d="M42.4391 70.0651C41.9227 70.0093 41.8077 69.6941 41.9618 69.3114C42.0545 69.0814 42.2674 68.8657 42.48 68.7237C44.7969 67.1756 46.8781 65.3567 48.7705 63.3163C48.9912 63.0785 49.2286 62.7774 49.5857 63.085C49.9531 63.4013 49.8848 63.7676 49.5852 64.0932C47.6011 66.2492 45.4271 68.1862 42.9713 69.7948C42.8004 69.9066 42.6052 69.9818 42.4391 70.0651Z" fill="#F5F4EE"/>
<path d="M53.5996 86.935C53.5327 86.5646 53.6826 86.318 54.0142 86.2415C54.3321 86.1681 54.5254 86.4133 54.6087 86.6643C55.4794 89.286 56.9251 91.5479 58.8213 93.5427C59.047 93.7802 59.3317 94.1602 58.9317 94.4664C58.6024 94.7183 58.2395 94.6747 57.9146 94.3226C56.1342 92.3937 54.7107 90.2444 53.8153 87.7658C53.7165 87.4923 53.5487 87.2285 53.5996 86.935Z" fill="#F5F4EE"/>
<path d="M136.774 50.9756C135.699 50.7625 134.621 50.2392 133.552 49.662C132.265 48.9667 131.141 48.0778 130.128 47.0329C129.895 46.7924 129.763 46.5417 130.06 46.2742C130.338 46.0227 130.62 46.0044 130.912 46.299C132.609 48.0148 134.662 49.1289 136.953 49.8277C137.342 49.9462 137.724 50.0494 137.607 50.5797C137.525 50.9563 137.21 50.9652 136.774 50.9756Z" fill="#F5F4EE"/>
<path d="M142.54 153.513C142.564 154.403 142.585 155.293 142.612 156.182C142.626 156.615 142.485 157.003 142.026 157.03C141.516 157.06 141.61 156.591 141.531 156.253C141.119 154.493 141.624 152.716 141.41 150.954C141.363 150.56 141.558 150.207 141.968 150.174C142.486 150.134 142.458 150.579 142.47 150.933C142.499 151.793 142.518 152.653 142.54 153.513Z" fill="#94374D"/>
<path d="M164.371 148.703C164.343 149.011 164.38 149.322 163.941 149.36C163.564 149.393 163.39 149.166 163.305 148.866C162.832 147.192 162.364 145.517 161.914 143.837C161.828 143.518 161.822 143.165 162.233 143.024C162.607 142.896 162.804 143.143 162.906 143.433C163.517 145.156 163.957 146.926 164.371 148.703Z" fill="#94374D"/>
<path d="M148.073 153.973C148.094 154.371 148.074 154.71 147.639 154.772C147.231 154.83 147.074 154.588 146.997 154.211C146.75 152.999 146.469 151.794 146.218 150.582C146.156 150.28 146.191 149.965 146.56 149.861C146.948 149.752 147.195 149.928 147.279 150.313C147.552 151.55 147.817 152.788 148.073 153.973Z" fill="#94374D"/>
<path d="M121.073 121.137C120.806 123.242 120.568 125.351 120.266 127.452C119.803 130.673 119.195 133.863 118.043 136.927C117.479 138.427 116.811 139.876 116.053 141.288C115.854 141.658 115.601 141.857 115.2 141.68C114.725 141.472 114.78 141.114 114.986 140.722C116.748 137.366 117.948 133.816 118.639 130.093C119.203 127.046 119.69 123.989 119.925 120.896C119.939 120.721 119.967 120.543 120.024 120.378C120.113 120.119 120.242 119.86 120.578 119.907C120.91 119.953 120.974 120.22 120.984 120.505C120.992 120.712 120.995 120.92 121.001 121.128C121.025 121.131 121.049 121.134 121.073 121.137Z" fill="#94374D"/>
<path d="M112.5 116.156C112.915 116.089 113.28 116.338 113.654 116.492C114.881 116.997 116.163 117.422 117.154 118.36C117.416 118.607 117.949 118.86 117.508 119.355C117.102 119.811 116.726 119.569 116.369 119.23C115.238 118.154 113.779 117.72 112.352 117.244C111.985 117.122 111.752 116.994 111.807 116.592C111.858 116.21 112.156 116.159 112.5 116.156Z" fill="#94374D"/>
<path d="M113.953 124.121C115.108 124.511 116.443 124.816 117.449 125.819C117.74 126.109 118.1 126.463 117.725 126.883C117.321 127.336 117.004 126.931 116.693 126.662C115.821 125.912 114.769 125.521 113.682 125.232C113.277 125.124 112.881 125.012 112.942 124.535C113.003 124.05 113.469 124.175 113.953 124.121Z" fill="#94374D"/>
<path d="M113.935 129.933C113.987 129.584 114.203 129.408 114.603 129.553C115.21 129.772 115.82 129.989 116.41 130.249C116.65 130.355 116.85 130.583 116.741 130.894C116.65 131.154 116.412 131.213 116.164 131.209C115.399 131.197 114.777 130.787 114.131 130.457C113.973 130.376 113.924 130.178 113.935 129.933Z" fill="#94374D"/>
</svg>
