<?xml version="1.0" encoding="utf-8"?>
<!-- Generator: Adobe Illustrator 27.3.1, SVG Export Plug-In . SVG Version: 6.00 Build 0)  -->
<svg version="1.1" id="Layer_1" xmlns="http://www.w3.org/2000/svg" xmlns:xlink="http://www.w3.org/1999/xlink" x="0px" y="0px"
	 viewBox="0 0 612 181.7" style="enable-background:new 0 0 612 181.7;" xml:space="preserve">
<style type="text/css">
	.st0{fill:#EF3F5E;}
</style>
<g>
	<path class="st0" d="M81.4,133.9H58.6l-21-86.2h22.8L70.1,87l9.5-39.4h22.8L112,87l9.5-39.4h22.8l-21,86.2h-22.8L91,94.5
		L81.4,133.9z"/>
	<path class="st0" d="M172.7,47.6v86.2h-22.2V47.6H172.7z"/>
	<path class="st0" d="M204.7,75c0.2,1.2,1.3,2.3,3.4,3.1c2.1,0.9,4.6,1.7,7.6,2.7c3,0.9,6.1,2,9.6,3.3c3.4,1.3,6.5,3,9.2,5.1
		c2.7,2.1,4.8,4.9,6.4,8.1c1.5,3.3,2,7.4,1.3,12.2c-0.7,5.7-2.6,10.4-5.6,14.1c-3,3.7-6.6,6.5-10.7,8.4c-4.2,1.9-8.6,3-13.4,3.3
		c-4.8,0.3-9.4-0.1-13.8-1.1s-8.4-2.7-11.9-4.9c-3.5-2.2-6.1-4.9-7.7-8l11.1-20.1c0.4,2,1.4,3.7,3,5.2c1.6,1.5,3.5,2.7,5.7,3.7
		c2.2,1,4.5,1.7,7,2.2c2.5,0.5,4.7,0.6,6.7,0.6c2-0.1,3.7-0.5,5.1-1.2c1.4-0.7,2-1.7,1.9-3c0-1-0.6-1.9-1.7-2.6s-2.6-1.4-4.4-2.1
		c-1.8-0.7-3.8-1.3-6.1-2c-2.3-0.7-4.6-1.5-6.9-2.5c-2.3-1-4.6-2.1-6.8-3.5c-2.2-1.3-4.2-3-6-4.9c-1.8-2-3.2-4.3-4.2-6.9
		c-1-2.6-1.5-5.7-1.4-9.3c0.1-5.5,1.3-10.1,3.6-13.9c2.3-3.7,5.3-6.7,8.9-9c3.6-2.3,7.6-3.8,12.1-4.7c4.4-0.9,8.8-1.1,13.1-0.8
		c4.3,0.3,8.3,1.2,12,2.6c3.7,1.4,6.6,3.2,8.7,5.3l-9.7,20.9c-0.4-1.1-1.4-2-2.9-2.8c-1.5-0.8-3.3-1.5-5.2-2c-2-0.5-4-0.8-6.2-0.9
		c-2.1-0.1-4.1,0-5.9,0.4c-1.8,0.3-3.2,0.9-4.3,1.8S204.5,73.6,204.7,75z"/>
	<path class="st0" d="M248.6,133.9V47.8h53.2V70h-31v9.6h22.3v22.2h-22.3v9.9H303v22.2H248.6z"/>
	<path class="st0" d="M310.4,133.9V47.8h23.4c5.7,0,10.6,0.7,14.9,2c4.2,1.4,7.8,3.2,10.6,5.6c2.8,2.4,5,5.1,6.4,8.3
		c1.4,3.1,2.1,6.5,2.1,10.1c0,2.5-0.3,4.9-0.9,7.2c-0.6,2.3-1.6,4.4-2.9,6.4c2.9,2.4,5,5.2,6.4,8.4c1.4,3.2,2.1,6.7,2.1,10.6
		c0,3.8-0.8,7.3-2.4,10.7c-1.6,3.3-4,6.3-7.2,8.8c-3.2,2.5-7.2,4.5-12,5.9c-4.8,1.4-10.5,2.2-17,2.2H310.4z M332.6,78.4
		c0.7,0.1,1.3,0.1,1.9,0.2c0.6,0,1.3,0.1,1.9,0.1c6.1,0.2,9.1-1.4,9.1-4.6c0-1.9-1-3.1-3.1-3.8c-2.1-0.6-5.4-0.7-9.8-0.3V78.4z
		 M332.6,111.7c5.9,0.5,10.3,0.4,13.1-0.4c2.8-0.8,4.3-2.3,4.5-4.6c0.2-2.7-1.3-4.5-4.3-5.2c-3-0.8-7.5-1-13.3-0.6V111.7z"/>
	<path class="st0" d="M420.8,47.6l24.7,86.2h-23.1l-3.8-13.6h-18.6l-3.8,13.6h-23.1l24.7-86.2H420.8z M406.4,98.1h5.8l-3-10.1
		L406.4,98.1z"/>
	<path class="st0" d="M473.8,47.8v20.6l13.4-20.6h26.5l-28.1,43.1l28.1,43.1h-26.5l-13.4-20.7v20.7h-22.2V47.8H473.8z"/>
	<path class="st0" d="M520,133.9V47.8h53.2V70h-31v9.6h22.3v22.2h-22.3v9.9h32.2v22.2H520z"/>
</g>
</svg>
